<?xml version="1.0" encoding="UTF-8"?>
<svg width="42px" height="42px" viewBox="0 0 42 42" version="1.1" xmlns="http://www.w3.org/2000/svg" xmlns:xlink="http://www.w3.org/1999/xlink">
    <!-- Generator: Sketch 46.2 (44496) - http://www.bohemiancoding.com/sketch -->
    <title>noun_158249_cc</title>
    <desc>Created with Sketch.</desc>
    <defs></defs>
    <g id="Page-1" stroke="none" stroke-width="1" fill="none" fill-rule="evenodd">
        <g id="Desktop-HD" transform="translate(-748.000000, -219.000000)" fill-rule="nonzero" fill="#7AD19C">
            <g id="case-copy-3" transform="translate(748.000000, 219.000000)">
                <g id="noun_158249_cc">
                    <path d="M21,0 C9.42037013,0 0,9.42037013 0,21 C0,32.5796299 9.42037013,42 21,42 C32.5796299,42 42,32.5796299 42,21 C42,9.42037013 32.5796299,0 21,0 Z M31.2229951,13.6275364 C31.5768999,13.9814411 31.5768999,14.555296 31.2229951,14.9092007 L17.7597322,28.3724636 C17.5827799,28.5494159 17.3507022,28.6381677 17.1191757,28.6381677 C16.8876493,28.6381677 16.6555716,28.5494159 16.4786192,28.3724636 L10.7764536,22.6714004 C10.4225489,22.3174957 10.4225489,21.7436409 10.7764536,21.3897362 C11.1303583,21.0358315 11.7042132,21.0358315 12.0581179,21.3897362 L17.1186245,26.4502428 L29.9413309,13.6275364 C30.2957868,13.2736317 30.8690904,13.2736317 31.2229951,13.6275364 Z" id="Shape"></path>
                </g>
            </g>
        </g>
    </g>
</svg>