<?xml version="1.0" encoding="UTF-8"?>
<svg width="93px" height="93px" viewBox="0 0 93 93" version="1.1" xmlns="http://www.w3.org/2000/svg" xmlns:xlink="http://www.w3.org/1999/xlink">
    <!-- Generator: Sketch 46.2 (44496) - http://www.bohemiancoding.com/sketch -->
    <title>begin_icon</title>
    <desc>Created with Sketch.</desc>
    <defs></defs>
    <g id="Page-1" stroke="none" stroke-width="1" fill="none" fill-rule="evenodd">
        <g id="begin_icon" fill-rule="nonzero" fill="#4C6BFF">
            <g id="Group">
                <polygon id="Shape" points="70.6 34.4 71.1 34 65.1 28 38.7 54.3 26.9 42.5 20.9 48.4 38.7 66.2"></polygon>
                <path d="M46,92.1 C71.5,92.1 92.1,71.4 92.1,46 C92.1,20.5 71.5,0 46,0 C20.5,0 0,20.5 0,46 C0,71.3 20.5,92.1 46,92.1 Z M46,5 C68.6,5 87,23.4 87,46 C87,68.6 68.6,87 46,87 C23.4,87 5,68.6 5,46 C5,23.4 23.4,5 46,5 Z" id="Shape"></path>
            </g>
        </g>
    </g>
</svg>