<?xml version="1.0" encoding="UTF-8"?>
<svg width="100px" height="99px" viewBox="0 0 100 99" version="1.1" xmlns="http://www.w3.org/2000/svg" xmlns:xlink="http://www.w3.org/1999/xlink">
    <!-- Generator: Sketch 46.2 (44496) - http://www.bohemiancoding.com/sketch -->
    <title>breakdown_icon</title>
    <desc>Created with Sketch.</desc>
    <defs></defs>
    <g id="Page-1" stroke="none" stroke-width="1" fill="none" fill-rule="evenodd">
        <g id="breakdown_icon" transform="translate(0.000000, -1.000000)" fill-rule="nonzero" fill="#4C6BFF">
            <g id="Group" transform="translate(0.000000, 0.637820)">
                <path d="M56.9999999,0.36216 C55.8954761,0.362270325 55.0001102,1.2576362 54.9999999,2.36216 L54.9999999,43.36216 C55.0000881,44.4666994 55.8954605,45.3620897 56.9999999,45.3622 L97.9999999,45.3622 C99.1045393,45.3620897 99.9999117,44.4666994 99.9999999,43.36216 C99.9999999,19.63767 80.7243999,0.36216 56.9999999,0.36216 L56.9999999,0.36216 Z M58.9999999,4.36216 C78.9365999,5.38593 94.7886999,21.23801 95.8124999,41.17466 L58.9999999,41.17466 L58.9999999,4.36216 Z M43,13.36216 C19.2755,13.36216 -1.00000001e-07,32.63767 -1.00000001e-07,56.3622 C-1.00000001e-07,80.0866 19.2755,99.3622 43,99.3622 C66.7244,99.3622 86,80.0866 86,56.3622 C85.9998897,55.2576762 85.1045238,54.3623103 84,54.3622 L45,54.3622 L45,15.36216 C44.9998897,14.2576362 44.1045238,13.3622703 43,13.36216 Z M41,17.54966 L41,56.3622 C41.0001103,57.4667238 41.8954762,58.3620897 43,58.3622 L81.8125,58.3622 C80.7501,78.9704 63.8757,95.3622 43,95.3622 C21.4373,95.3622 3.9999999,77.9248 3.9999999,56.3622 C3.9999999,35.48361 20.3879,18.60811 41,17.54966 Z" id="Shape"></path>
            </g>
        </g>
    </g>
</svg>