<?xml version="1.0" encoding="UTF-8"?>
<svg width="84px" height="84px" viewBox="0 0 84 84" version="1.1" xmlns="http://www.w3.org/2000/svg" xmlns:xlink="http://www.w3.org/1999/xlink">
    <!-- Generator: Sketch 46.2 (44496) - http://www.bohemiancoding.com/sketch -->
    <title>noun_1399483_cc copy</title>
    <desc>Created with Sketch.</desc>
    <defs></defs>
    <g id="Page-1" stroke="none" stroke-width="1" fill="none" fill-rule="evenodd">
        <g id="noun_1399483_cc-copy" fill-rule="nonzero" fill="#DCDCDC">
            <g id="Group">
                <path d="M30.4,41.7 C30.3721889,42.1851608 30.4758333,42.6688345 30.7,43.1 C30.9028961,43.4796974 31.1741016,43.8187044 31.5,44.1 L32.7,44.8 L33.2,45 L33.3,45 L33.3,38.4 C32.5295595,38.4209408 31.7890934,38.7030232 31.2,39.2 C30.5762765,39.8737471 30.2832946,40.7893157 30.4,41.7 L30.4,41.7 Z" id="Shape"></path>
                <path d="M38.7,52.6 L37.3,51.8 L36.7,51.6 L36.5,51.6 L36.5,59.5 C37.3602378,59.3742721 38.162161,58.9907436 38.8,58.4 L38.8,58.4 C39.6018222,57.6180277 40.0062857,56.5149452 39.9,55.4 C39.9593397,54.3364213 39.4684437,53.3168682 38.6,52.7 L38.7,52.6 Z" id="Shape"></path>
                <path d="M49,0.7 C36.3777782,0.64821286 24.7594093,7.57306848 18.8,18.7 C5.92429576,25.6788887 -1.09992329,40.063072 1.31378895,54.5082317 C3.72750119,68.9533915 15.0466085,80.2724988 29.4917683,82.6862111 C43.936928,85.0999233 58.3211113,78.0757042 65.3,65.2 C79.1415953,57.7466823 86.1444185,41.8376953 82.2926705,26.5961158 C78.4409225,11.3545364 64.7207316,0.682528145 49,0.7 Z M44.3,58.7 C43.8471619,59.7689467 43.1642994,60.7249542 42.3,61.5 C41.4234377,62.2611477 40.4034064,62.8391654 39.3,63.2 C38.3665333,63.5359995 37.390158,63.7380082 36.4,63.8 L36.4,66.5 L33.4,66.5 L33.4,63.7 C32.335713,63.6351292 31.2888947,63.3987509 30.3,63 C29.1800076,62.5796564 28.1587372,61.9328519 27.3,61.1 C26.4525636,60.2528461 25.8036378,59.2282264 25.4,58.1 C24.9375965,56.8194266 24.7336652,55.4598841 24.8,54.1 L24.8,53.7 L29.9,53.7 L29.9,54.1 C29.8122832,55.4102525 30.1641937,56.7123213 30.9,57.8 C31.4978762,58.650028 32.4612374,59.168761 33.5,59.2 L33.5,50.9 L31.8,50.3 L31,50 C29.996148,49.6008293 29.0535488,49.0622012 28.2,48.4 C27.329341,47.7263613 26.6132452,46.8738663 26.1,45.9 C25.5411726,44.7484269 25.2668259,43.4795734 25.3,42.2 C25.2714971,41.0281592 25.5109137,39.8652783 26,38.8 C26.4734649,37.8289419 27.1565575,36.975076 28,36.3 C29.5928695,35.0997812 31.5082441,34.4032813 33.5,34.3 L33.5,31.6 L36.6,31.6 L36.6,34.1 C37.4862411,34.1404349 38.3619742,34.3088451 39.2,34.6 C40.1899287,34.9174778 41.1074621,35.4272186 41.9,36.1 C42.7119813,36.781084 43.3611899,37.6353059 43.8,38.6 C44.2843961,39.7020962 44.5232517,40.8963743 44.5,42.1 L44.5,42.5 L39.3,42.5 L39.3,42.1 C39.315174,41.1239322 38.9977799,40.1717499 38.4,39.4 C37.9387481,38.8238051 37.2380298,38.491886 36.5,38.5 L36.5,45.9 L38.4,46.6 L39.2,46.9 C40.2453618,47.3202485 41.2226507,47.8931419 42.1,48.6 C42.9960146,49.2340468 43.7461132,50.0523361 44.3,51 L44.3,51 C44.8625852,52.1502728 45.1371334,53.4200584 45.1,54.7 C45.1001736,56.04076 44.8280046,57.3675842 44.3,58.6 L44.3,58.7 Z M68.7,55.4 C70.8468961,44.2533288 67.3399113,32.766441 59.3332027,24.7196988 C51.3264941,16.6729567 39.8572402,13.1087246 28.7,15.2 C35.7137765,7.34821712 46.4956921,4.02076084 56.7145324,6.55430702 C66.9333728,9.08785319 74.9121468,17.0666272 77.445693,27.2854676 C79.9792392,37.5043079 76.6517829,48.2862235 68.8,55.3 L68.7,55.4 Z" id="Shape"></path>
            </g>
        </g>
    </g>
</svg>