<?xml version="1.0" encoding="UTF-8"?>
<svg width="822px" height="128px" viewBox="0 0 822 128" version="1.1" xmlns="http://www.w3.org/2000/svg" xmlns:xlink="http://www.w3.org/1999/xlink">
    <!-- Generator: Sketch 46.2 (44496) - http://www.bohemiancoding.com/sketch -->
    <title>duck_lower</title>
    <desc>Created with Sketch.</desc>
    <defs></defs>
    <g id="Page-1" stroke="none" stroke-width="1" fill="none" fill-rule="evenodd">
        <g id="Desktop" transform="translate(-2224.000000, -3423.000000)">
            <g id="duck_lower" transform="translate(2227.000000, 3398.000000)">
                <text id="devindex" font-family="ProximaNovaT-Thin, Proxima Nova" font-size="150" font-style="condensed" font-weight="300" letter-spacing="6.81818199" fill="#002940">
                    <tspan x="167" y="136">dev</tspan>
                    <tspan x="428.567827" y="136" font-family="ProximaNovaA-Regular, Proxima Nova Alt" font-weight="normal" letter-spacing="7.86713314">index</tspan>
                </text>
                <path d="M110.948037,66.986742 C107.091775,64.061519 107.766933,80.2744704 86.482611,82.7652172 C76.719653,83.9075898 68.4405447,82.1347274 61.4406174,79.7825635 C69.0994789,74.7373967 74.1600432,66.0715954 74.1600432,56.2134818 C74.1600432,40.6322687 61.535464,28 45.9594089,28 C32.3639001,28 21.0234937,37.6221482 18.3553096,50.4279576 C8.21421319,48.2955288 0,46.39532 0,55.0998246 C0,63.1913183 12.0455159,71.2503512 24.8547964,76.1119893 C11.5201158,82.0685572 2.22015881,95.4424317 2.22015881,110.996178 C2.22015881,132.089495 19.4298215,146.997769 40.399652,149.190126 C70.1752388,152.303871 105.498103,147.202522 118.836527,120.406082 C128.377345,101.240441 124.091777,76.9522262 110.948037,66.986742 Z" id="Shape-Copy" stroke="#315AFF" stroke-width="5" fill-rule="nonzero"></path>
            </g>
        </g>
    </g>
</svg>