<?xml version="1.0" encoding="UTF-8"?>
<svg width="57px" height="45px" viewBox="0 0 57 45" version="1.1" xmlns="http://www.w3.org/2000/svg" xmlns:xlink="http://www.w3.org/1999/xlink">
    <!-- Generator: Sketch 46.2 (44496) - http://www.bohemiancoding.com/sketch -->
    <title>email</title>
    <desc>Created with Sketch.</desc>
    <defs></defs>
    <g id="Page-1" stroke="none" stroke-width="1" fill="none" fill-rule="evenodd">
        <g id="Desktop-HD" transform="translate(-736.000000, -451.000000)" fill-rule="nonzero" fill="#7E7E7E">
            <g id="email" transform="translate(736.000000, 451.000000)">
                <path d="M9,0 L48,0 C52.98,0 57,4.02 57,9 L57,36 C57,40.98 52.98,45 48,45 L9,45 C4.02,45 0,40.98 0,36 L0,9 C0,4.02 4.02,0 9,0 L9,0 Z M8.86632391,3 C7.35604113,3 6.02699229,3.52545455 5,4.45272727 L28.5,20 L52,4.45272727 C50.9730077,3.52545455 49.6439589,3 48.1336761,3 L8.86632391,3 L8.86632391,3 Z M28.5,23.2158703 L3.39,7 C3.15,7.65699659 3,8.40358362 3,9.15017065 L3,36.0273038 C3,39.3122867 5.7,42 9,42 L48,42 C51.3,42 54,39.3122867 54,36.0273038 L54,9.15017065 C54,8.40358362 53.85,7.65699659 53.61,7 L28.5,23.2158703 Z" id="Shape"></path>
            </g>
        </g>
    </g>
</svg>