<?xml version="1.0" encoding="UTF-8"?>
<svg width="58px" height="77px" viewBox="0 0 58 77" version="1.1" xmlns="http://www.w3.org/2000/svg" xmlns:xlink="http://www.w3.org/1999/xlink">
    <!-- Generator: Sketch 46.2 (44496) - http://www.bohemiancoding.com/sketch -->
    <title>lab copy</title>
    <desc>Created with Sketch.</desc>
    <defs></defs>
    <g id="Page-1" stroke="none" stroke-width="1" fill="none" fill-rule="evenodd">
        <g id="lab-copy" fill="#4C6BFF">
            <path d="M19.8176384,2.95246414e-13 C17.2787966,2.95246414e-13 15.1917489,2.09060567 15.1917489,4.62593284 C15.1917489,7.06177701 17.1214175,9.09149134 19.5201071,9.25186567 L19.6014802,25.5643657 C14.5445727,39.040934 7.50233393,50.4659818 3.37013691,59.0008982 C1.28914885,63.2993042 -0.168382489,66.8131519 0.0156593019,69.9841072 C0.107680197,71.5696713 0.74896975,73.1209549 1.9634205,74.2042564 C3.17787124,75.2876445 4.81554885,75.8945669 6.83282348,76.1791131 C6.91389402,76.1848286 6.99526638,76.1848286 7.07633691,76.1791131 L50.2246145,76.1791131 C50.3056851,76.1848286 50.3870574,76.1848286 50.468128,76.1791131 C52.4844503,75.8944803 54.1237727,75.2879042 55.3375309,74.2042564 C56.5512026,73.1206087 57.1939638,71.5694116 57.2852921,69.9841072 C57.4679489,66.8134982 56.011716,63.299131 53.9308145,59.0008982 C49.7986175,50.4660684 42.7521369,39.040934 37.6994712,25.5643657 L37.7808444,9.25186567 C40.1790145,9.09108448 42.1092026,7.0615 42.1092026,4.62593284 C42.1092026,2.09060567 40.0221548,0 37.483313,0 L19.8181578,0 L19.8176384,2.95246414e-13 Z M19.8176384,3.46268657 L37.4827936,3.46268657 C38.139925,3.46268657 38.6459966,3.98266955 38.6459966,4.62593284 C38.6459966,5.2830209 38.139925,5.7891791 37.4827936,5.7891791 L36.0489817,5.7891791 C35.0927882,5.78918154 34.3176408,6.56432891 34.3176384,7.52052239 L34.2362653,25.8619403 C34.2371309,26.0651362 34.2737595,26.2665935 34.3444742,26.4570896 C39.5502772,40.4532773 46.8063369,52.2000952 50.8192444,60.4888146 C52.8256981,64.633131 53.9268324,67.975749 53.8220862,69.7947848 C53.7692802,70.7042594 53.5427339,71.183149 53.037528,71.634337 C52.5441817,72.0747907 51.6194712,72.4861579 50.0887906,72.7164266 L7.21103542,72.7164266 C5.67896975,72.4861579 4.75642348,72.0750504 4.26238468,71.634337 C3.75622647,71.1828893 3.53063244,70.7040863 3.47782647,69.7947848 C3.37230109,67.9761818 4.47421453,64.6330445 6.48058169,60.4888146 C10.4934026,52.2003549 17.7452205,40.4531042 22.9554384,26.4570896 C23.0261531,26.2665935 23.0627817,26.0651362 23.0636474,25.8619403 L22.9554384,7.52052239 C22.955436,6.56432891 22.1802886,5.78918154 21.2240951,5.7891791 L19.8173787,5.7891791 C19.1600742,5.7891791 18.6541757,5.2830209 18.6541757,4.62593284 C18.6541757,3.98266955 19.1600742,3.46268657 19.8173787,3.46268657 L19.8176384,3.46268657 Z" id="Shape"></path>
            <path d="M22.0413383,40.6865672 C21.336427,40.6866537 20.7019471,41.1141026 20.4370756,41.7673582 C17.607195,48.746403 13.7886308,55.0297075 11.762786,59.7765313 C10.7498636,62.1499433 9.9893711,64.1480866 10.6152517,66.2125403 C10.928192,67.2447672 11.774386,68.1795194 12.8051413,68.6275045 C13.8186696,69.0679582 14.9518338,69.1703672 16.2878248,69.1000746 L40.6535383,69.1000746 C40.6674194,69.1000684 40.6813001,69.0998953 40.6951771,69.0995552 C42.1099442,69.065794 43.2894218,68.869806 44.3102218,68.3646 C45.3309353,67.859394 46.1541024,66.9331254 46.4778636,65.8898179 C47.1254726,63.803203 46.3436845,61.7796955 45.2976069,59.4503463 C43.2053651,54.7914746 39.2894995,48.7221642 36.473989,41.7681373 C36.2092646,41.1144343 35.5744775,40.6866431 34.8692069,40.6866537 L22.0413383,40.6866537 L22.0413383,40.6865672 Z" id="Shape"></path>
            <path d="M26.8098563,7.79123848 C25.8543601,7.80562227 25.0911965,8.59142472 25.1047429,9.54693311 L25.1047429,23.9895824 C25.0938131,24.6152465 25.4213444,25.1981184 25.9614372,25.5141482 C26.50153,25.830178 27.1701229,25.830178 27.7102157,25.5141482 C28.2503084,25.1981184 28.5778398,24.6152465 28.56691,23.9895824 L28.56691,9.54693311 C28.5735424,9.0790556 28.3905108,8.62841603 28.0595102,8.29767147 C27.7285096,7.96692691 27.2777285,7.78424401 26.8098563,7.79123848 L26.8098563,7.79123848 Z" id="Shape"></path>
        </g>
    </g>
</svg>