<?xml version="1.0" encoding="UTF-8"?>
<svg width="62px" height="62px" viewBox="0 0 62 62" version="1.1" xmlns="http://www.w3.org/2000/svg" xmlns:xlink="http://www.w3.org/1999/xlink">
    <!-- Generator: Sketch 46.2 (44496) - http://www.bohemiancoding.com/sketch -->
    <title>moon</title>
    <desc>Created with Sketch.</desc>
    <defs></defs>
    <g id="Page-1" stroke="none" stroke-width="1" fill="none" fill-rule="evenodd">
        <g id="Desktop-HD" transform="translate(-835.000000, -443.000000)" fill-rule="nonzero" fill="#7E7E7E">
            <g id="moon" transform="translate(835.000000, 443.000000)">
                <g id="Group">
                    <path d="M19.1,3.7 C16.9,7.8 15.7,12.4 15.7,17.3 C15.7,33.3 28.7,46.3 44.7,46.3 C49.6,46.3 54.3,45.1 58.3,42.9 C53.4,52.1 43.8,58.3 32.7,58.3 C16.7,58.3 3.7,45.3 3.7,29.3 C3.7,18.2 9.9,8.6 19.1,3.7 L19.1,3.7 Z M19.1,0.7 C18.6,0.7 18.1,0.8 17.7,1.1 C7.2,6.7 0.7,17.5 0.7,29.4 C0.7,47 15.1,61.4 32.7,61.4 C44.5,61.4 55.3,54.9 60.9,44.5 C61.2,44.1 61.3,43.7 61.3,43.2 C61.3,41.6 60,40.4 58.3,40.4 C58.3,40.4 50.9,43.4 44.7,43.4 C30.4,43.4 18.7,31.7 18.7,17.4 C18.7,13.2 19.8,8.9 21.7,5.2 C22.3,4 22.1,2.6 21.2,1.7 C20.6,1 19.9,0.7 19.1,0.7 L19.1,0.7 Z" id="Shape"></path>
                </g>
            </g>
        </g>
    </g>
</svg>