<?xml version="1.0" encoding="UTF-8"?>
<svg width="90px" height="90px" viewBox="0 0 90 90" version="1.1" xmlns="http://www.w3.org/2000/svg" xmlns:xlink="http://www.w3.org/1999/xlink">
    <!-- Generator: Sketch 46.2 (44496) - http://www.bohemiancoding.com/sketch -->
    <title>price_icon</title>
    <desc>Created with Sketch.</desc>
    <defs></defs>
    <g id="Page-1" stroke="none" stroke-width="1" fill="none" fill-rule="evenodd">
        <g id="price_icon" fill-rule="nonzero" fill="#4C6BFF">
            <g id="Group" transform="translate(0.000000, 0.637820)">
                <path d="M87.046592,0.30778 L48.140342,0.99528 C47.6224101,1.00765575 47.1294844,1.22051003 46.765342,1.58903 L1.5153428,46.839 C1.13562612,47.2147028 0.921962837,47.7266802 0.921962837,48.26085 C0.921962837,48.7950198 1.13562612,49.3069972 1.5153428,49.6827 L39.702842,87.839 C40.4820786,88.6093816 41.7361054,88.6093816 42.515342,87.839 L87.765392,42.589 C88.1338865,42.224857 88.3467218,41.7319444 88.359092,41.21403 L89.077792,2.33903 C89.0862614,1.79776576 88.874983,1.27618155 88.4922092,0.893398374 C88.1094355,0.510615196 87.5878564,0.299323959 87.046592,0.30778 L87.046592,0.30778 Z M85.046592,4.30778 L84.359092,40.37033 L41.109092,83.6202 L5.734093,48.2452 L48.984092,4.99528 L85.046592,4.30778 L85.046592,4.30778 Z M70.109092,11.27653 C68.057532,11.27653 66.006562,12.06658 64.452842,13.62028 C61.345362,16.72771 61.345362,21.82535 64.452842,24.93278 C67.560292,28.04018 72.657902,28.04018 75.765342,24.93278 C78.872792,21.82537 78.872792,16.72777 75.765342,13.62028 C74.211612,12.06658 72.160652,11.27653 70.109092,11.27653 Z M70.109092,15.24528 C71.128602,15.24528 72.132182,15.64338 72.921592,16.43278 C74.500462,18.01169 74.500402,20.51024 72.921592,22.08903 C71.342772,23.66783 68.844172,23.66783 67.265342,22.08903 C65.686542,20.51026 65.686542,18.01155 67.265342,16.43278 C68.054752,15.64338 69.089582,15.24528 70.109092,15.24528 Z M45.202842,27.46403 C44.099192,27.46403 43.202842,28.35953 43.202842,29.46403 L43.202842,30.80778 C39.749722,31.61228 37.046592,34.66003 37.046592,38.58903 C37.046592,41.09643 38.275352,43.0562 39.765342,44.1515 C41.255332,45.2469 42.850912,45.7399 44.171592,46.3703 C46.532292,47.3549 48.966782,48.418 48.984092,50.589 C48.984092,53.2634 47.446892,54.589 45.015342,54.589 C43.128672,54.589 41.545942,53.129 40.827842,51.6827 C40.429082,50.6484 39.063272,50.124 38.077842,50.6202 C37.092392,51.1164 36.682942,52.5222 37.265342,53.464 C38.319122,55.5865 40.387162,57.7097 43.202842,58.3702 L43.202842,59.464 C43.202842,60.5686 44.099192,61.464 45.202842,61.464 C46.306502,61.464 47.202842,60.5686 47.202842,59.464 L47.202842,58.2765 C50.467912,57.3414 52.952842,54.3708 52.952842,50.589 C52.952842,48.0816 51.755352,46.0906 50.265342,44.9953 C48.775332,43.8999 47.179802,43.4069 45.859092,42.7765 C43.510772,41.79373 41.063692,40.73233 41.046592,38.58903 C41.046592,35.91453 42.583732,34.58903 45.015342,34.58903 C46.902012,34.58903 48.484742,36.01773 49.202842,37.46403 C49.601602,38.49833 50.967412,39.02273 51.952842,38.52653 C52.938282,38.03033 53.316482,36.62463 52.734092,35.68283 C51.729072,33.65858 49.819972,31.65043 47.202842,30.90153 L47.202842,29.46403 C47.202842,28.35953 46.306502,27.46403 45.202842,27.46403 Z" id="Shape"></path>
            </g>
        </g>
    </g>
</svg>