<?xml version="1.0" encoding="UTF-8"?>
<svg width="82px" height="94px" viewBox="0 0 82 94" version="1.1" xmlns="http://www.w3.org/2000/svg" xmlns:xlink="http://www.w3.org/1999/xlink">
    <!-- Generator: Sketch 46.2 (44496) - http://www.bohemiancoding.com/sketch -->
    <title>spec_icon</title>
    <desc>Created with Sketch.</desc>
    <defs></defs>
    <g id="Page-1" stroke="none" stroke-width="1" fill="none" fill-rule="evenodd">
        <g id="spec_icon" fill-rule="nonzero" fill="#4C6BFF">
            <path d="M14.83,49.67 L35.17,49.67 C35.7222847,49.67 36.17,49.2222847 36.17,48.67 C36.17,48.1177153 35.7222847,47.67 35.17,47.67 L14.83,47.67 C14.2777153,47.67 13.83,48.1177153 13.83,48.67 C13.83,49.2222847 14.2777153,49.67 14.83,49.67 Z" id="Shape"></path>
            <path d="M46.17,60.67 L14.83,60.67 C14.2777153,60.67 13.83,61.1177153 13.83,61.67 C13.83,62.2222847 14.2777153,62.67 14.83,62.67 L46.17,62.67 C46.7222847,62.67 47.17,62.2222847 47.17,61.67 C47.17,61.1177153 46.7222847,60.67 46.17,60.67 Z" id="Shape"></path>
            <path d="M46.17,73.67 L14.83,73.67 C14.2777153,73.67 13.83,74.1177153 13.83,74.67 C13.83,75.2222847 14.2777153,75.67 14.83,75.67 L46.17,75.67 C46.7222847,75.67 47.17,75.2222847 47.17,74.67 C47.17,74.1177153 46.7222847,73.67 46.17,73.67 Z" id="Shape"></path>
            <path d="M30.08,0.5 C25.1094373,0.5 21.08,4.52943725 21.08,9.5 L21.08,15.5 L9.08,15.5 C4.10943725,15.5 0.08,19.5294373 0.08,24.5 L0.08,84.5 C0.08,89.4705627 4.10943725,93.5 9.08,93.5 L51.93,93.5 C56.9005627,93.5 60.93,89.4705627 60.93,84.5 L60.93,78.5 L72.93,78.5 C77.9005627,78.5 81.93,74.4705627 81.93,69.5 L81.93,19.75 C81.93,19.75 81.93,19.75 81.93,19.69 C81.9249308,19.6015003 81.9081168,19.5140675 81.88,19.43 L81.88,19.33 C81.8400305,19.250308 81.7895834,19.1763189 81.73,19.11 L81.73,19.05 L81.73,19.05 L62.13,0.77 C61.9440522,0.60097314 61.7012832,0.508149675 61.45,0.51 L30.08,0.51 L30.08,0.5 Z M58.93,84.5 C58.93,88.3659932 55.7959932,91.5 51.93,91.5 L9.08,91.5 C5.21400675,91.5 2.08,88.3659932 2.08,84.5 L2.08,24.5 C2.08,20.6340068 5.21400675,17.5 9.08,17.5 L39.45,17.5 L39.45,30.75 C39.45,33.5114237 41.6885763,35.75 44.45,35.75 L58.93,35.75 L58.93,84.5 Z M41.45,30.75 L41.45,18.81 L57.39,33.75 L44.45,33.75 C42.7931458,33.75 41.45,32.4068542 41.45,30.75 Z M62.45,3.81 L78.39,18.75 L65.45,18.75 C63.7931458,18.75 62.45,17.4068542 62.45,15.75 L62.45,3.81 Z M65.45,20.75 L79.93,20.75 L79.93,69.5 C79.93,73.3659932 76.7959932,76.5 72.93,76.5 L60.93,76.5 L60.93,60.67 L67.17,60.67 C67.7222847,60.67 68.17,60.2222847 68.17,59.67 C68.17,59.1177153 67.7222847,58.67 67.17,58.67 L60.93,58.67 L60.93,47.67 L67.17,47.67 C67.7222847,47.67 68.17,47.2222847 68.17,46.67 C68.17,46.1177153 67.7222847,45.67 67.17,45.67 L60.93,45.67 L60.93,34.75 L60.93,34.75 C60.9317015,34.4743399 60.8195342,34.2102039 60.62,34.02 L41.13,15.77 C40.9440522,15.6009731 40.7012832,15.5081497 40.45,15.51 L23.08,15.51 L23.08,9.51 C23.08,5.64400675 26.2140068,2.51 30.08,2.51 L60.45,2.51 L60.45,15.75 C60.45,18.5114237 62.6885763,20.75 65.45,20.75 Z" id="Shape"></path>
        </g>
    </g>
</svg>