<?xml version="1.0" encoding="UTF-8"?>
<svg width="60px" height="96px" viewBox="0 0 60 96" version="1.1" xmlns="http://www.w3.org/2000/svg" xmlns:xlink="http://www.w3.org/1999/xlink">
    <!-- Generator: Sketch 46.2 (44496) - http://www.bohemiancoding.com/sketch -->
    <title>noun_1240775_cc copy</title>
    <desc>Created with Sketch.</desc>
    <defs></defs>
    <g id="Page-1" stroke="none" stroke-width="1" fill="none" fill-rule="evenodd">
        <g id="noun_1240775_cc-copy" fill-rule="nonzero" fill="#C9C9D0">
            <path d="M59,28.6 L55.3,22.9 L55.7,16.1 C55.7,15.3 55.3,14.5 54.6,14.2 L48.5,11.2 L45.5,5.1 C45.1,4.4 44.4,3.9 43.5,4 L36.7,4.4 L31,0.6 C30.3,0.2 29.5,0.2 28.8,0.6 L23.1,4.3 L16.4,4 C15.6,4 14.8,4.4 14.5,5.1 L11.5,11.2 L5.4,14.2 C4.7,14.6 4.3,15.3 4.3,16.1 L4.7,22.9 L1,28.6 C0.6,29.3 0.6,30.1 1,30.8 L4.7,36.5 L4.3,43.3 C4.3,44.1 4.7,44.8 5.4,45.2 L11,48 L11,93.7 C11,94.8 11.9,95.7 13,95.7 C13.3,95.7 13.7,95.6 13.9,95.5 L30,86.9 L46.1,95.4 C47.1,95.9 48.3,95.5 48.8,94.6 C49,94.3 49,94 49,93.7 L49,47.9 L54.6,45.1 C55.3,44.7 55.7,44 55.7,43.2 L55.3,36.4 L59,30.7 C59.4,30.1 59.4,29.2 59,28.6 Z M30.9,82.9 C30.3,82.6 29.6,82.6 29,82.9 L15,90.3 L15,54.8 C15.4,55.2 15.9,55.3 16.4,55.3 L23.2,54.9 L28.9,58.6 C29.6,59 30.4,59 31.1,58.6 L36.8,54.9 L43.6,55.3 C44.1,55.3 44.7,55.1 45,54.7 L45,90.2 L30.9,82.9 Z M51.6,34.8 C51.4,35.2 51.3,35.6 51.3,36 L51.7,42.1 L46.2,44.9 C45.8,45.1 45.5,45.4 45.3,45.8 L42.5,51.3 L36.4,50.9 C36,50.9 35.5,51 35.2,51.2 L30,54.6 L24.9,51.2 C24.6,51 24.2,50.9 23.8,50.9 L23.7,50.9 L17.6,51.3 L14.8,45.8 C14.6,45.4 14.3,45.1 13.9,44.9 L8.4,42.1 L8.8,35.9 C8.8,35.5 8.7,35 8.5,34.7 L5,29.7 L8.4,24.6 C8.6,24.2 8.8,23.8 8.7,23.4 L8.3,17.3 L13.8,14.5 C14.2,14.3 14.5,14 14.7,13.6 L17.5,8.1 L23.6,8.5 C24,8.5 24.5,8.4 24.8,8.2 L30,4.7 L35.1,8.1 C35.5,8.3 35.9,8.5 36.3,8.4 L42.4,8 L45.2,13.5 C45.4,13.9 45.7,14.2 46.1,14.4 L51.6,17.2 L51.2,23.3 C51.2,23.7 51.3,24.2 51.5,24.5 L54.9,29.6 L51.6,34.8 Z" id="Shape"></path>
            <path d="M30,15.4 C22.1,15.4 15.7,21.8 15.7,29.7 C15.7,37.6 22.1,44 30,44 C37.9,44 44.3,37.6 44.3,29.7 C44.3,21.8 37.9,15.4 30,15.4 Z M30,40 C24.3,40 19.7,35.4 19.7,29.7 C19.7,24 24.3,19.4 30,19.4 C35.7,19.4 40.3,24 40.3,29.7 L40.3,29.7 C40.3,35.4 35.7,40 30,40 Z" id="Shape"></path>
        </g>
    </g>
</svg>