<?xml version="1.0" encoding="UTF-8"?>
<svg width="70px" height="70px" viewBox="0 0 70 70" version="1.1" xmlns="http://www.w3.org/2000/svg" xmlns:xlink="http://www.w3.org/1999/xlink">
    <!-- Generator: Sketch 46.2 (44496) - http://www.bohemiancoding.com/sketch -->
    <title>sun</title>
    <desc>Created with Sketch.</desc>
    <defs></defs>
    <g id="Page-1" stroke="none" stroke-width="1" fill="none" fill-rule="evenodd">
        <g id="Desktop-HD" transform="translate(-935.000000, -437.000000)" fill-rule="nonzero" fill="#FFC56E">
            <g id="sun" transform="translate(935.000000, 437.000000)">
                <g id="Group">
                    <path d="M34.9996463,18 C25.6105782,18 18,25.611444 18,35 C18,44.3892634 25.6112857,52 34.9996463,52 C44.3880069,52 52,44.388556 52,35 C52,25.611444 44.3887143,18 34.9996463,18 Z M34.9996463,49.1072409 C27.2214061,49.1072409 20.8934063,42.7791094 20.8934063,35.0007074 C20.8934063,27.2223055 27.2214061,20.8941739 34.9996463,20.8941739 C42.7778864,20.8941739 49.1058863,27.2223055 49.1058863,35.0007074 C49.1058863,42.7791094 42.7778864,49.1072409 34.9996463,49.1072409 Z" id="Shape"></path>
                    <path d="M14,35.4999997 C14,34.6713797 13.3663972,34 12.5844015,34 L1.4155985,34 C0.63360284,34 0,34.6713797 0,35.4999997 C0,36.3286197 0.63360284,36.9999994 1.4155985,36.9999994 L12.5844015,36.9999994 C13.3663972,37.0007308 14,36.3286197 14,35.4999997 Z" id="Shape"></path>
                    <path d="M68.5844015,34 L57.4155985,34 C56.6336028,34 56,34.672111 56,35.4999997 C56,36.3286197 56.6336028,36.9999994 57.4155985,36.9999994 L68.5844015,36.9999994 C69.3663972,37.0007308 70,36.3286197 70,35.4999997 C70,34.6713797 69.3663972,34 68.5844015,34 Z" id="Shape"></path>
                    <path d="M35.4999997,56 C34.6713797,56 34,56.6336028 34,57.4162887 L34,68.5850917 C34,69.3663972 34.6713797,70 35.4999997,70 C36.3286197,70 36.9999994,69.3663972 36.9999994,68.5844015 L36.9999994,57.4155985 C37.0007308,56.6336028 36.3286197,56 35.4999997,56 Z" id="Shape"></path>
                    <path d="M35.4999997,14 C36.3286197,14 36.9999994,13.3663972 36.9999994,12.5844015 L36.9999994,1.4155985 C37.0007308,0.63360284 36.3286197,0 35.4999997,0 C34.6713797,0 34,0.63360284 34,1.4162887 L34,12.5850917 C34,13.3663972 34.6713797,14 35.4999997,14 Z" id="Shape"></path>
                    <path d="M18.5220014,49.4251182 L10.4251182,57.5220014 C9.85829393,58.0888256 9.85829393,59.0080575 10.4251182,59.5748818 C10.9919425,60.1417061 11.9111744,60.1417061 12.4779986,59.5748818 L20.5748818,51.4779986 C21.1417061,50.9111744 21.1417061,49.9919425 20.5748818,49.4251182 C20.0080575,48.8582939 19.0888256,48.8582939 18.5220014,49.4251182 Z" id="Shape"></path>
                    <path d="M51.4779986,20.5748818 L59.5748818,12.4779986 C60.1417061,11.9111744 60.1417061,10.9919425 59.5748818,10.4251182 C59.0080575,9.85829393 58.0888256,9.85829393 57.5220014,10.4251182 L49.4251182,18.5220014 C48.8582939,19.0888256 48.8582939,20.0080575 49.4251182,20.5748818 C49.9919425,21.1417061 50.9111744,21.1417061 51.4779986,20.5748818 Z" id="Shape"></path>
                    <path d="M51.4779986,49.4251182 C50.9111744,48.8582939 49.9919425,48.8582939 49.4251182,49.4251182 C48.8582939,49.9919425 48.8582939,50.9111744 49.4251182,51.4779986 L57.5220014,59.5748818 C58.0888256,60.1417061 59.0080575,60.1417061 59.5748818,59.5748818 C60.1417061,59.0080575 60.1417061,58.0888256 59.5748818,57.5220014 L51.4779986,49.4251182 Z" id="Shape"></path>
                    <path d="M18.5220014,20.5748818 C19.0888256,21.1417061 20.0080575,21.1417061 20.5748818,20.5748818 C21.1417061,20.0080575 21.1417061,19.0888256 20.5748818,18.5220014 L12.4779986,10.4251182 C11.9111744,9.85829393 10.9919425,9.85829393 10.4251182,10.4251182 C9.85829393,10.9919425 9.85829393,11.9111744 10.4251182,12.4779986 L18.5220014,20.5748818 Z" id="Shape"></path>
                </g>
            </g>
        </g>
    </g>
</svg>