<?xml version="1.0" encoding="UTF-8"?>
<svg width="652px" height="76px" viewBox="0 0 652 76" version="1.1" xmlns="http://www.w3.org/2000/svg" xmlns:xlink="http://www.w3.org/1999/xlink">
    <!-- Generator: Sketch 46.2 (44496) - http://www.bohemiancoding.com/sketch -->
    <title>verified_project</title>
    <desc>Created with Sketch.</desc>
    <defs></defs>
    <g id="Page-1" stroke="none" stroke-width="1" fill="none" fill-rule="evenodd">
        <g id="verified_project">
            <text id="VERIFIED-PROJECT" font-family="AvenirNext-DemiBold, Avenir Next" font-size="40" font-weight="500" letter-spacing="12" fill="#CB6DFF">
                <tspan x="109" y="52">VERIFIED PROJECT</tspan>
            </text>
            <g id="ver_ragged" fill-rule="nonzero">
                <path d="M36.8903737,73.1072877 L31.4920229,75.5252257 C29.1443006,76.5767784 26.3808717,75.8363197 24.8734604,73.7517871 L21.4073208,68.9586162 C20.9540416,68.3317966 20.2548729,67.928131 19.4853914,67.8489899 L13.6013137,67.2438105 C11.0423501,66.9806203 9.01937988,64.95765 8.7561896,62.3986861 L8.15101019,56.5146083 C8.07186876,55.745127 7.66820356,55.0459585 7.04138374,54.5926789 L2.24821267,51.1265395 C0.163680274,49.6191284 -0.576778223,46.8556994 0.474774119,44.5079767 L2.89271224,39.1096263 C3.20891451,38.403665 3.20891451,37.596335 2.89271224,36.8903737 L0.474774119,31.4920228 C-0.576778223,29.1443006 0.163680274,26.3808716 2.24821267,24.8734605 L7.04138374,21.4073206 C7.66820356,20.9540415 8.07186876,20.2548731 8.15101019,19.4853912 L8.7561896,13.6013139 C9.01937988,11.04235 11.0423501,9.01937972 13.6013137,8.75618955 L19.4853914,8.15101014 C20.2548729,8.0718685 20.9540416,7.66820346 21.4073208,7.0413838 L24.8734604,2.24821236 C26.3808717,0.163680282 29.1443006,-0.576778378 31.4920229,0.474774345 L36.8903737,2.89271231 C37.596335,3.20891458 38.4036651,3.20891458 39.1096264,2.89271231 L44.5079767,0.474774345 C46.8556995,-0.576778378 49.6191284,0.163680282 51.1265396,2.24821236 L54.5926789,7.0413838 C55.0459585,7.66820346 55.745127,8.0718685 56.5146083,8.15101014 L62.3986862,8.75618955 C64.9576501,9.01937972 66.9806203,11.04235 67.2438105,13.6013139 L67.8489899,19.4853912 C67.928131,20.2548731 68.3317966,20.9540415 68.9586163,21.4073206 L73.7517872,24.8734605 C75.8363198,26.3808716 76.5767784,29.1443006 75.5252257,31.4920228 L73.1072878,36.8903737 C72.7910855,37.596335 72.7910855,38.403665 73.1072878,39.1096263 L75.5252257,44.5079767 C76.5767784,46.8556994 75.8363198,49.6191284 73.7517872,51.1265395 L68.9586163,54.5926789 C68.3317966,55.0459585 67.928131,55.745127 67.8489899,56.5146083 L67.2438105,62.3986861 C66.9806203,64.95765 64.9576501,66.9806203 62.3986862,67.2438105 L56.5146083,67.8489899 C55.745127,67.928131 55.0459585,68.3317966 54.5926789,68.9586162 L51.1265396,73.7517871 C49.6191284,75.8363197 46.8556995,76.5767784 44.5079767,75.5252257 L39.1096264,73.1072877 C38.4036651,72.7910854 37.596335,72.7910854 36.8903737,73.1072877 Z" id="Shape" fill="#CB6DFF"></path>
                <polygon id="Shape" fill="#FFFFFF" points="58.5916335 28.1937173 59 27.8691099 54.0996016 23 32.5378486 44.3429319 22.9003984 34.7670157 18 39.5549738 32.5378486 54"></polygon>
            </g>
        </g>
    </g>
</svg>